Coordinates
version=1
nRows=10
nColumns=23
inDegrees=yes

Units are S.I. units (second, meters, Newtons, ...)
If the header above contains a line with 'inDegrees', this indicates whether rotational values are in degrees (yes) or radians (no).

endheader
time	pelvis_tilt	pelvis_list	pelvis_rotation	pelvis_tx	pelvis_ty	pelvis_tz	hip_flexion_r	hip_adduction_r	hip_rotation_r	knee_angle_r	knee_angle_r_beta	ankle_angle_r	subtalar_angle_r	mtp_angle_r	hip_flexion_l	hip_adduction_l	hip_rotation_l	knee_angle_l	knee_angle_l_beta	ankle_angle_l	subtalar_angle_l	mtp_angle_l
      7.50000000	     -2.82188458	     -3.20532660	     -6.77721168	      2.18219304	      0.97744545	      1.05164935	     26.53662327	      5.21449543	     -2.91223546	     43.57448701	      0.76051827	     19.47408405	     -0.57401369	      0.00000000	      8.03802070	     -9.74625177	    -12.74648073	     82.36129217	      1.43747572	    -11.48964355	    -26.17224161	      0.00000000
      7.50666667	     -2.64835931	     -3.37983074	     -6.30105073	      2.17981609	      0.97604538	      1.05093035	     25.28385606	      5.04411482	     -3.14109258	     44.30245358	      0.77322368	     21.29863015	     -0.14364349	      0.00000000	     10.33506509	     -9.91113423	    -11.37585299	     84.32101751	      1.47167938	    -10.32653441	    -25.12653465	      0.00000000
      7.51333333	     -2.47262140	     -3.42557917	     -5.89613370	      2.17751467	      0.97527074	      1.05029298	     23.85463321	      4.77570114	     -3.30463001	     44.71278469	      0.78038531	     23.05106033	      0.40085185	      0.00000000	     12.57867738	     -9.79791531	    -10.03824849	     85.87779590	      1.49885029	     -9.37752020	    -24.22234412	      0.00000000
      7.52000000	     -2.42654314	     -3.42910570	     -5.41041459	      2.17554804	      0.97507066	      1.04959500	     22.31843860	      4.47833033	     -3.50856567	     44.68985206	      0.77998506	     24.57923181	      0.87468627	      0.00000000	     14.92179841	     -9.56021360	     -8.64532211	     87.08313672	      1.51988746	     -8.40109441	    -23.15568118	      0.00000000
      7.52666667	     -2.43320036	     -3.33734795	     -4.96458594	      2.17378289	      0.97543456	      1.04902404	     20.66663497	      4.16895773	     -3.57252781	     44.34394486	      0.77394784	     25.96655544	      1.09022928	      0.00000000	     17.22036937	     -9.15228359	     -7.34075714	     87.89352797	      1.53403145	     -7.53475074	    -22.16301786	      0.00000000
      7.53333333	     -2.69489162	     -3.19817584	     -4.43432775	      2.17257721	      0.97618584	      1.04838187	     19.05978646	      3.69990996	     -4.04586571	     43.60349382	      0.76102453	     26.84891518	      1.98092996	      0.00000000	     19.69401939	     -8.71933578	     -6.13844375	     88.35464462	      1.54207946	     -6.41298943	    -20.53671593	      0.00000000
      7.54000000	     -2.91539595	     -2.93700496	     -3.97890289	      2.17153312	      0.97755051	      1.04793412	     17.30003478	      3.22179492	     -4.28622987	     42.62740418	      0.74398855	     27.54394690	      2.52218390	      0.00000000	     21.96612907	     -8.09336084	     -5.09334640	     88.39689220	      1.54281682	     -5.51530780	    -19.22602302	      0.00000000
      7.54666667	     -3.14011189	     -2.63482686	     -3.57246119	      2.17088105	      0.97946088	      1.04752227	     15.40218852	      2.71706475	     -4.55457980	     41.37365979	      0.72210659	     27.94901761	      3.18184994	      0.00000000	     24.05055383	     -7.46184055	     -4.28103702	     88.04750935	      1.53671894	     -4.60301021	    -17.82581114	      0.00000000
      7.55333333	     -3.26635567	     -2.27456177	     -3.24079489	      2.17055082	      0.98201377	      1.04726109	     13.29117351	      2.20134599	     -4.75824105	     39.88970652	      0.69620672	     28.09628813	      3.92971307	      0.00000000	     25.82682244	     -6.82407222	     -3.71916242	     87.30452438	      1.52375140	     -3.76143364	    -16.49656363	      0.00000000
      7.56000000	     -3.39840185	     -1.80321181	     -2.97240188	      2.17046105	      0.98498393	      1.04705220	     11.14440504	      1.61246815	     -4.88487230	     38.27546320	      0.66803286	     27.99055748	      4.57306668	      0.00000000	     27.41613854	     -6.10609234	     -3.38990211	     86.18233040	      1.50416542	     -3.01176791	    -15.36752837	      0.00000000
